HIERARCHY
ROOT Hips
{
	OFFSET 0.00000 0.00000 0.00000
	CHANNELS 6 Xposition Yposition Zposition Zrotation Yrotation Xrotation 
	JOINT LHipJoint
	{
		OFFSET 0 0 0
		CHANNELS 3 Zrotation Yrotation Xrotation
		JOINT LeftHip
		{
			OFFSET 2.36090 -1.39315 1.24752
			CHANNELS 3 Zrotation Yrotation Xrotation
			JOINT LeftKnee
			{
				OFFSET 2.06810 -5.68207 0.00000
				CHANNELS 3 Zrotation Yrotation Xrotation
				JOINT LeftAnkle
				{
					OFFSET 2.46631 -6.77613 0.00000
					CHANNELS 3 Zrotation Yrotation Xrotation
					JOINT LeftToe
					{
						OFFSET 0.26031 -0.71520 1.99545
						CHANNELS 3 Zrotation Yrotation Xrotation
						End Site
						{
							OFFSET 0.00000 -0.00000 1.05957
						}
					}
				}
			}
		}
	}
	JOINT RHipJoint
	{
		OFFSET 0 0 0
		CHANNELS 3 Zrotation Yrotation Xrotation
		JOINT RightHip
		{
			OFFSET -2.25243 -1.39315 1.24752
			CHANNELS 3 Zrotation Yrotation Xrotation
			JOINT RightKnee
			{
				OFFSET -2.17343 -5.97145 0.00000
				CHANNELS 3 Zrotation Yrotation Xrotation
				JOINT RightAnkle
				{
					OFFSET -2.52372 -6.93386 0.00000
					CHANNELS 3 Zrotation Yrotation Xrotation
					JOINT RightToe
					{
						OFFSET -0.22538 -0.61923 2.11447
						CHANNELS 3 Zrotation Yrotation Xrotation
						End Site
						{
							OFFSET -0.00000 -0.00000 1.10506
						}
					}
				}
			}
		}
	}
	JOINT lowerback
	{
		OFFSET 0 0 0
		CHANNELS 3 Zrotation Yrotation Xrotation
		JOINT Chest
		{
			OFFSET 0.01594 2.13103 0.08007
			CHANNELS 3 Zrotation Yrotation Xrotation
			JOINT Chest2
			{
				OFFSET 0.01393 2.09723 0.18338
				CHANNELS 3 Zrotation Yrotation Xrotation
				JOINT lowerneck
				{
					OFFSET 0 0 0
					CHANNELS 3 Zrotation Yrotation Xrotation
					JOINT Neck
					{
						OFFSET 0.05351 1.38915 0.32494
						CHANNELS 3 Zrotation Yrotation Xrotation
						JOINT Head
						{
							OFFSET 0.00711 1.45992 -0.21666
							CHANNELS 3 Zrotation Yrotation Xrotation
							End Site
							{
								OFFSET -0.00433 1.47702 -0.11056
							}
						}
					}
				}
				JOINT LeftCollar
				{
					OFFSET 0 0 0
					CHANNELS 3 Zrotation Yrotation Xrotation
					JOINT LeftShoulder
					{
						OFFSET 2.87198 0.92249 0.11132
CHANNELS 3 Zrotation Xrotation Yrotation
						JOINT LeftElbow
						{
OFFSET 0 -5.527310 0.000000
CHANNELS 3 Zrotation Xrotation Yrotation
							JOINT LeftWrist
							{
OFFSET 0 -3.110590 0.000000
CHANNELS 3 Zrotation Xrotation Yrotation
								JOINT lhand
								{
									OFFSET 0 0 0
CHANNELS 3 Zrotation Xrotation Yrotation
									JOINT LFingers
									{
OFFSET 0 -0.419630 0.000000
CHANNELS 3 Zrotation Xrotation Yrotation
										End Site
										{
OFFSET 0 -0.338310 0.000000
										}
									}
								}
								JOINT LThumb
								{
OFFSET 0 0.000000 0.000000
CHANNELS 3 Zrotation Xrotation Yrotation
									End Site
									{
OFFSET 0 -0.343480 0.343480
									}
								}
							}
						}
					}
				}
				JOINT RightCollar
				{
					OFFSET 0 0 0
					CHANNELS 3 Zrotation Yrotation Xrotation
					JOINT RightShoulder
					{
						OFFSET -2.94710 0.68072 0.32187
CHANNELS 3 Zrotation Xrotation Yrotation
						JOINT RightElbow
						{
OFFSET 0 -5.253960 -0.000000
CHANNELS 3 Zrotation Xrotation Yrotation
							JOINT RightWrist
							{
OFFSET 0 -3.105670 0.000000
CHANNELS 3 Zrotation Xrotation Yrotation
								JOINT rhand
								{
									OFFSET 0 0 0
CHANNELS 3 Zrotation Xrotation Yrotation
									JOINT RFingers
									{
OFFSET 0 -0.498680 0.000000
CHANNELS 3 Zrotation Xrotation Yrotation
										End Site
										{
OFFSET 0 -0.402040 0.000000
										}
									}
								}
								JOINT RThumb
								{
OFFSET 0 0.000000 0.000000
CHANNELS 3 Zrotation Xrotation Yrotation
									End Site
									{
OFFSET 0 -0.408180 0.408180
									}
								}
							}
						}
					}
				}
			}
		}
	}
}
MOTION
Frames: 5
Frame Time: 0.008333333333333333
3.867442 1.951439 15.781754 -52.374481 -7.507829 -61.393080 0.000000 0.000000 0.000000 -16.317251 7.016459 -87.482787 32.645716 15.623159 129.797965 1.192824 -5.155363 23.085734 1.555354 7.870997 22.322899 0.000000 0.000000 0.000000 15.463172 15.318363 -61.515505 -33.688018 -14.723963 133.778792 -0.128426 15.819936 23.672281 -0.376111 3.938708 -10.904346 -10.923548 6.506934 -6.322680 1.419859 9.293378 -1.027815 8.011723 4.642649 0.468872 0.933739 3.939616 -19.383601 1.117103 6.127242 34.952555 1.495164 2.990693 15.546199 0.000000 0.000000 0.000000 126.141505 -52.097987 44.152225 17.351785 -27.319174 4.247540 -8.073219 -22.155590 -13.517056 0.000000 0.000000 0.000000 -7.125000 0.000000 0.000000 -30.911205 41.292803 -3.173263 0.000000 0.000000 0.000000 -3.982061 -33.546676 111.868614 -84.281590 -59.876095 -55.049764 -39.804276 -21.490230 0.035096 0.000000 0.000000 0.000000 7.125000 0.000000 0.000000 -10.398691 29.941028 -3.878278
3.972971 1.996503 15.838473 -54.448551 -6.162653 -61.436494 0.000000 0.000000 0.000000 -17.066897 6.695978 -86.541759 32.588933 15.668492 129.587678 1.233873 -4.942558 23.298867 1.599984 7.977834 22.646849 0.000000 0.000000 0.000000 15.339243 15.620779 -60.865627 -33.641324 -14.767181 133.595184 -0.426376 14.861031 25.102526 -0.247032 3.197021 -8.827894 -11.539835 6.049261 -6.538957 1.591377 8.769702 -0.814394 8.578713 4.355057 0.808000 0.470716 3.676456 -19.507268 1.031279 5.969871 35.298474 1.523308 2.841190 15.729378 0.000000 0.000000 0.000000 127.544547 -52.636625 46.729205 17.197348 -27.117225 4.176893 -7.371009 -20.888862 -13.111410 0.000000 0.000000 0.000000 -7.125000 0.000000 0.000000 -30.181076 41.011017 -3.316559 0.000000 0.000000 0.000000 -4.818808 -33.455728 111.142308 -84.216529 -59.873211 -54.993461 -41.189247 -20.080175 -0.134879 0.000000 0.000000 0.000000 7.125000 0.000000 0.000000 -11.449494 29.700988 -4.351233
4.088155 2.043732 15.899853 -56.689038 -4.831823 -61.436427 0.000000 0.000000 0.000000 -17.655131 6.233279 -85.620637 32.536256 15.710277 129.392928 1.262434 -4.744115 23.417481 1.615790 8.015260 22.760427 0.000000 0.000000 0.000000 15.267003 15.890976 -60.414222 -33.572269 -14.830400 133.324909 -0.803022 13.887470 27.042859 -0.130277 2.322374 -6.397550 -12.105993 5.591360 -6.844512 1.780913 8.251441 -0.674473 9.143487 4.070640 1.137340 0.065483 3.406051 -19.576936 0.964517 5.773726 35.599604 1.539193 2.687894 15.882925 0.000000 0.000000 0.000000 129.170551 -53.385368 49.072429 16.994719 -26.850802 4.084989 -6.424217 -19.454004 -12.990180 0.000000 0.000000 0.000000 -7.125000 0.000000 0.000000 -29.374896 41.000189 -3.216561 0.000000 0.000000 0.000000 -5.447762 -33.225492 110.335275 -82.314765 -59.775095 -53.349452 -43.950666 -17.487066 -0.988418 0.000000 0.000000 0.000000 7.125000 0.000000 0.000000 -13.419222 28.495762 -5.533040
4.213406 2.091832 15.965399 -59.114557 -3.606759 -61.558156 0.000000 0.000000 0.000000 -17.986987 5.751446 -84.520183 32.498200 15.740300 129.252400 1.276819 -4.408820 23.346336 1.692837 8.194489 23.306489 0.000000 0.000000 0.000000 15.431750 16.031358 -59.966433 -33.456434 -14.935175 132.873928 -1.310852 12.700238 29.541326 -0.040791 1.297420 -3.567558 -12.452346 5.200004 -7.033093 1.997129 7.785494 -0.646893 9.591491 3.827894 1.308204 -0.400131 3.077540 -19.221370 0.993653 5.461899 35.688647 1.564904 2.502925 15.827211 0.000000 0.000000 0.000000 130.746337 -54.551121 51.288813 16.957643 -26.801847 4.068197 -6.389382 -17.377149 -13.143114 0.000000 0.000000 0.000000 -7.125000 0.000000 0.000000 -29.409607 41.138192 -3.109072 0.000000 0.000000 0.000000 -5.724633 -32.762471 109.218998 -79.201804 -59.554148 -50.662495 -47.347529 -13.956002 -1.607903 0.000000 0.000000 0.000000 7.125000 0.000000 0.000000 -15.833115 27.482703 -6.990429
4.346922 2.140919 16.041394 -61.763076 -2.546860 -61.722953 0.000000 0.000000 0.000000 -18.005505 4.814421 -83.413163 32.492765 15.744576 129.232395 1.339734 -3.257220 23.253068 1.804641 8.446632 24.079147 0.000000 0.000000 0.000000 15.876801 16.050083 -59.731074 -33.302751 -15.071523 132.280381 -2.017781 11.133685 32.744166 -0.000467 -0.072787 0.200054 -12.877887 4.749762 -7.283324 2.446598 7.264252 -0.509037 10.353396 3.544192 1.614649 -0.907952 2.767957 -19.208845 0.870938 5.232728 35.669898 1.556343 2.319648 15.806523 0.000000 0.000000 0.000000 132.211636 -55.336856 53.165981 17.125055 -27.022314 4.144044 -7.493445 -14.892496 -13.022777 0.000000 0.000000 0.000000 -7.125000 0.000000 0.000000 -30.241513 40.921116 -3.400652 0.000000 0.000000 0.000000 -5.839336 -32.639287 108.154738 -75.598998 -59.201343 -47.561892 -50.678507 -10.569016 -1.904718 0.000000 0.000000 0.000000 7.125000 0.000000 0.000000 -18.192066 26.830289 -8.425822
